<svg xmlns="http://www.w3.org/2000/svg" width="172" height="24" viewBox="0 0 172 24">
  <g id="Group_5983" data-name="Group 5983" transform="translate(427.796 -429.764)">
    <path id="Path_12398" data-name="Path 12398" d="M-418.441,568.822c-1.772-.947-3.765-1.628-5.276-2.892a12.066,12.066,0,0,1-1.575-16.419A11.847,11.847,0,0,1-409,547.028c.828.572,1.569,1.273,2.335,1.9-1.556,2.371-3.021,2.79-5.332,1.615-1.68-.855-3.356-1.554-5.33-1.083a6.918,6.918,0,0,0-5.482,5.553c-.661,2.954-.16,5.776,2.335,7.765a7.062,7.062,0,0,0,7.752.842c.242-.108.474-.241.711-.362,2.345-1.2,3.56-.877,5.157,1.447a11.3,11.3,0,0,1-5.723,3.6c-.541.15-1.07.342-1.6.515Z" transform="translate(0 -115.058)"/>
    <path id="Path_12399" data-name="Path 12399" d="M-325.208,568.806a13.193,13.193,0,0,1-6.728-4.044,12.242,12.242,0,0,1,.252-15.949,11.794,11.794,0,0,1,16.013-1.588c.708.519,1.349,1.13,2,1.682-1.473,2.413-3.078,2.933-5.534,1.5a6.965,6.965,0,0,0-10.046,2.954,8.1,8.1,0,0,0,1.375,9.074c2.108,2.125,5.657,2.48,8.771.879,2.471-1.271,3.58-.992,5.239,1.352a11.548,11.548,0,0,1-6.5,3.851c-.29.072-.569.192-.853.289Z" transform="translate(-41.35 -115.042)"/>
    <path id="Path_12400" data-name="Path 12400" d="M-144.112,568.805a21.06,21.06,0,0,1-2.633-2.149c-1.568-1.746-3-3.613-4.53-5.475-3.687,3.684-7.079,7.756-13.1,6.692.655-.389,1.329-.747,1.962-1.17a39.289,39.289,0,0,0,9.338-9.257c1.931-2.56,3.771-5.2,5.815-7.66a26.774,26.774,0,0,1,4.058-3.816,5.873,5.873,0,0,1,4.495-1.1c-1.709,1.955-3.428,3.835-5.045,5.8-1.357,1.648-2.558,3.426-3.9,5.084a1.208,1.208,0,0,0,.064,1.822c2.695,3.319,5.348,6.671,8.006,10.019.3.378.533.809.8,1.215Z" transform="translate(-117.085 -115.041)"/>
    <path id="Path_12403" data-name="Path 12403" d="M-373.262,568.417a11.757,11.757,0,0,1-11.73-11.729,11.812,11.812,0,0,1,11.961-11.656,11.721,11.721,0,0,1,11.618,11.819A11.678,11.678,0,0,1-373.262,568.417ZM-380.3,556.79a7.227,7.227,0,0,0,7.11,7.319,7.293,7.293,0,0,0,7.164-7.431,7.344,7.344,0,0,0-7.143-7.342A7.289,7.289,0,0,0-380.3,556.79Z" transform="translate(-19.026 -115.142)"/>
    <path id="Path_12404" data-name="Path 12404" d="M-280.244,568.417a11.7,11.7,0,0,1-11.695-11.733,11.746,11.746,0,0,1,11.93-11.652,11.717,11.717,0,0,1,11.616,11.824A11.674,11.674,0,0,1-280.244,568.417Zm.138-4.311a7.376,7.376,0,0,0,7.142-7.36,7.426,7.426,0,0,0-7.255-7.4,7.354,7.354,0,0,0-7.1,7.383A7.29,7.29,0,0,0-280.105,564.105Z" transform="translate(-60.386 -115.142)"/>
    <path id="Path_12405" data-name="Path 12405" d="M-184.979,546.478c0,3.939.005,7.769,0,11.6a21.089,21.089,0,0,1-.089,2.942,8.727,8.727,0,0,1-7.175,7.767,15.844,15.844,0,0,1-7.624-.1,8.4,8.4,0,0,1-6.655-7.893c-.214-4.717-.05-9.45-.05-14.319.719,0,1.413-.052,2.1.011,1.738.157,2.409.906,2.424,2.7.027,3.171-.034,6.345.056,9.513a6.16,6.16,0,0,0,3.437,5.485c3.783,2.108,8.256-.8,8.79-4.406a17.527,17.527,0,0,0,.217-2.4c.026-2.769,0-5.539.015-8.309.011-1.73.641-2.426,2.357-2.586C-186.5,546.424-185.8,546.478-184.979,546.478Z" transform="translate(-98.302 -115.775)"/>
    <path id="Path_12406" data-name="Path 12406" d="M-223.454,569.126h-16.907V546.36a23.838,23.838,0,0,1,2.933.2c1.427.267,1.67,1.422,1.672,2.663q.007,4.626,0,9.253V564.8h6.348C-225.37,564.8-225.024,565.046-223.454,569.126Z" transform="translate(-83.311 -115.732)"/>
    <path id="Path_12407" data-name="Path 12407" d="M-153.416,557.58l-8.859-11.081c3.263-.45,6.054-.3,7.968,2.733a58.08,58.08,0,0,0,3.643,4.683Z" transform="translate(-118.019 -115.71)"/>
  </g>
</svg>
